<svg width="22" height="22" viewBox="0 0 22 22" fill="none" xmlns="http://www.w3.org/2000/svg">
<path d="M18.3701 0.644531H3.63009C1.98374 0.644531 0.644531 1.98374 0.644531 3.62991V5.98078H21.3555V3.62991C21.3555 1.98374 20.0163 0.644531 18.3701 0.644531ZM13.8875 4.6878H8.1125C7.7327 4.6878 7.42491 4.37985 7.42491 4.00043C7.42491 3.62042 7.7327 3.31289 8.1125 3.31289H13.8875C14.2673 3.31289 14.575 3.62046 14.575 4.00043C14.575 4.3798 14.2673 4.6878 13.8875 4.6878ZM0.644531 18.3699C0.644531 20.016 1.98374 21.3555 3.63009 21.3555H18.3701C20.0163 21.3555 21.3555 20.016 21.3555 18.3699V7.35569H0.644531V18.3699ZM5.89561 12.3931C6.03225 11.9723 6.3531 11.6561 6.7757 11.5255L8.72661 10.9225L9.90296 9.25315C10.1579 8.89191 10.5576 8.68446 11 8.68446C11.4424 8.68446 11.8421 8.89191 12.097 9.25315L13.273 10.9225L15.2243 11.5255C15.647 11.6561 15.9675 11.9723 16.1043 12.3931C16.2414 12.8137 16.1675 13.2581 15.9023 13.6124L14.6782 15.2465L14.7078 17.2884C14.7143 17.731 14.5127 18.1336 14.1549 18.3935C13.7968 18.6539 13.3513 18.7211 12.9327 18.5784L11.0002 17.9193L9.06722 18.5784C8.92293 18.6274 8.77542 18.6518 8.62928 18.6518C8.35179 18.6518 8.07976 18.5642 7.84523 18.3935C7.48722 18.1336 7.28561 17.731 7.29227 17.2884L7.32175 15.2469L6.09778 13.6125C5.83245 13.2584 5.7588 12.8137 5.89561 12.3931Z" fill="url(#paint0_linear_624_7340)"/>
<defs>
<linearGradient id="paint0_linear_624_7340" x1="1.51998" y1="20.48" x2="20.4801" y2="1.51989" gradientUnits="userSpaceOnUse">
<stop stop-color="#FC4422"/>
<stop offset="1" stop-color="#FFBB32"/>
</linearGradient>
</defs>
</svg>
