<svg width="20" height="20" viewBox="0 0 20 20" fill="none" xmlns="http://www.w3.org/2000/svg">
<path d="M0.71875 6.90639H19.2804C19.3542 6.90663 19.4261 6.88312 19.4854 6.83935C19.5448 6.79557 19.5885 6.73385 19.6101 6.66331C19.6317 6.59278 19.63 6.51716 19.6053 6.44766C19.5806 6.37815 19.5342 6.31844 19.4729 6.27735L10.1886 0.433865C10.1332 0.395264 10.0672 0.374573 9.9996 0.374573C9.93201 0.374573 9.86603 0.395264 9.81055 0.433865L0.529698 6.27735C0.469397 6.31869 0.423798 6.37812 0.399488 6.44707C0.375179 6.51602 0.373418 6.59091 0.394461 6.66093C0.415503 6.73094 0.458259 6.79245 0.51655 6.83658C0.574842 6.8807 0.645652 6.90515 0.71875 6.90639ZM9.99958 2.43785C12.2712 2.50866 12.2707 5.80472 9.99955 5.8752C7.72796 5.80438 7.72849 2.50832 9.99958 2.43785ZM18.2492 7.59386C18.2484 7.86711 18.1395 8.12893 17.9463 8.32215C17.7531 8.51536 17.4913 8.62426 17.218 8.62507H2.78116C2.50791 8.62426 2.24608 8.51536 2.05287 8.32215C1.85965 8.12893 1.75075 7.86711 1.74995 7.59386H18.2492ZM19.6242 18.5934V19.2808C19.6239 19.3719 19.5876 19.4592 19.5232 19.5236C19.4588 19.588 19.3715 19.6243 19.2804 19.6246H0.71875C0.627663 19.6243 0.540382 19.588 0.475974 19.5236C0.411565 19.4592 0.375264 19.3719 0.375 19.2808V18.5934C0.375155 18.38 0.441777 18.172 0.565604 17.9983C0.68943 17.8246 0.864308 17.6938 1.06592 17.624C1.17452 17.5824 1.28994 17.5614 1.40624 17.5622H18.5929C18.7092 17.5614 18.8247 17.5824 18.9333 17.624C19.1349 17.6938 19.3097 17.8246 19.4336 17.9983C19.5574 18.1721 19.624 18.38 19.6242 18.5934ZM2.78116 15.4998H17.218C17.4913 15.5006 17.7531 15.6095 17.9463 15.8027C18.1395 15.9959 18.2484 16.2577 18.2492 16.531V16.8747H1.74995V16.531C1.75075 16.2577 1.85965 15.9959 2.05287 15.8027C2.24608 15.6095 2.50791 15.5006 2.78116 15.4998ZM4.97419 9.31254V14.8123H2.78116V9.31254H4.97419ZM17.218 14.8123H15.1556V9.31254H17.218V14.8123ZM9.99955 3.12531C10.271 3.12844 10.5302 3.23846 10.7211 3.43151C10.9119 3.62455 11.0189 3.88505 11.0189 4.1565C11.0189 4.42795 10.9119 4.68845 10.7211 4.8815C10.5303 5.07455 10.271 5.18458 9.99958 5.18772C9.72815 5.18459 9.4689 5.07457 9.27807 4.88153C9.08723 4.68848 8.98021 4.42798 8.9802 4.15653C8.9802 3.88508 9.08722 3.62458 9.27805 3.43153C9.46888 3.23848 9.72812 3.12845 9.99955 3.12531ZM12.062 14.8123V13.0936C12.062 12.5466 11.8447 12.0221 11.4579 11.6353C11.0712 11.2485 10.5466 11.0312 9.99958 11.0312C9.4526 11.0312 8.92802 11.2485 8.54124 11.6353C8.15447 12.0221 7.93718 12.5466 7.93718 13.0936V14.8123H5.66165V9.31254H14.4681V14.8123H12.062ZM11.3745 13.0936V14.8123H8.62465V13.0936C8.62808 12.7312 8.77446 12.3848 9.03193 12.1298C9.28941 11.8747 9.63717 11.7317 9.99958 11.7317C10.362 11.7317 10.7098 11.8747 10.9672 12.1298C11.2247 12.3848 11.3711 12.7312 11.3745 13.0936Z" fill="url(#paint0_linear_624_7327)"/>
<defs>
<linearGradient id="paint0_linear_624_7327" x1="0.374928" y1="9.99966" x2="19.6242" y2="9.99966" gradientUnits="userSpaceOnUse">
<stop stop-color="#00C0FF"/>
<stop offset="1" stop-color="#5558FF"/>
</linearGradient>
</defs>
</svg>
