<svg width="22" height="22" viewBox="0 0 22 22" fill="none" xmlns="http://www.w3.org/2000/svg">
<path d="M13.2702 13.5375V14.6636C12.9237 14.6199 12.6488 14.3798 12.6488 14.0997C12.6488 13.8206 12.9237 13.5808 13.2702 13.5375ZM13.8706 16.4052C14.2162 16.3615 14.4903 16.1217 14.4903 15.8417C14.4903 15.5626 14.2162 15.3233 13.8706 15.2795V16.4052ZM19.4675 16.6882C19.0772 19.5752 16.9279 21.2306 13.5704 21.2306C12.7136 21.2306 11.9344 21.1255 11.2426 20.9171C11.3048 20.7464 11.3271 20.5817 11.3271 20.4334V15.8554C11.3271 15.3352 11.0522 14.6152 9.74207 14.1383C9.3694 14.0028 8.93928 13.8969 8.47268 13.8244C8.27842 13.7943 8.07814 13.7699 7.87271 13.7515C8.15618 12.6339 8.65878 11.5523 9.3248 10.6449C9.90505 9.85368 10.5736 9.23484 11.2958 8.81414C11.3528 8.87116 11.412 8.9265 11.4725 8.97927C11.662 9.14435 11.8674 9.28761 12.0836 9.40513C12.2152 9.47676 12.364 9.51448 12.5137 9.51448H14.6253C14.775 9.51448 14.9238 9.47676 15.055 9.40513C15.2724 9.28718 15.4779 9.14396 15.6657 8.98013C15.7262 8.92779 15.7849 8.87292 15.8415 8.81629C16.8369 9.40036 17.7375 10.3589 18.4082 11.5751C19.3015 13.1944 19.6879 15.0582 19.4675 16.6882ZM13.8706 14.6757V13.5298H14.7909C14.9564 13.5298 15.0911 13.3951 15.0911 13.2296C15.0911 13.0637 14.9564 12.9294 14.7909 12.9294H13.8706V12.5027C13.8706 12.3368 13.7359 12.2021 13.5704 12.2021C13.4045 12.2021 13.2702 12.3368 13.2702 12.5027V12.9337C12.5871 12.9839 12.0485 13.4873 12.0485 14.0997C12.0485 14.713 12.5871 15.2173 13.2702 15.2675V16.4134H12.3658C12.1998 16.4134 12.0652 16.5476 12.0652 16.7136C12.0652 16.8795 12.1998 17.0137 12.3658 17.0137H13.2702V17.4405C13.2702 17.6064 13.4045 17.7406 13.5704 17.7406C13.7359 17.7406 13.8706 17.6064 13.8706 17.4405V17.0091C14.5529 16.9584 15.0911 16.4545 15.0911 15.8417C15.0911 15.2297 14.5529 14.7262 13.8706 14.6757ZM4.43852 14.0345C4.62762 13.9784 4.82876 13.9291 5.03892 13.8875C5.42616 13.8094 5.84429 13.7562 6.27999 13.7296C6.47726 13.7176 6.67797 13.7112 6.88082 13.7103V10.7144H8.31748C8.43242 10.7144 8.53705 10.6492 8.58724 10.5459C8.63786 10.443 8.62496 10.3203 8.55462 10.2298L5.89705 6.81274C5.86873 6.77587 5.83273 6.74712 5.79242 6.72697C5.75169 6.70725 5.70666 6.69651 5.66034 6.69651C5.5677 6.69651 5.48021 6.73939 5.42319 6.81274L2.76476 10.2298C2.69399 10.3203 2.68157 10.4429 2.73171 10.5459C2.78233 10.6488 2.88696 10.7144 3.00147 10.7144H4.43856L4.43852 14.0345ZM11.8674 8.52685C12.0227 8.66237 12.1912 8.78028 12.3705 8.87764C12.4146 8.90166 12.464 8.91408 12.5137 8.91408H14.6253C14.6755 8.91408 14.7244 8.90166 14.7685 8.87764C14.9478 8.78028 15.1163 8.6628 15.2716 8.52728C15.9993 7.8943 16.4462 6.8762 16.4462 5.78136C16.4462 5.6913 16.4432 5.59823 16.4359 5.49704C16.4196 5.25259 16.2884 5.04204 16.0791 4.92108C15.869 4.79673 15.6215 4.78513 15.4002 4.88976C14.8487 5.15092 14.2162 5.28902 13.5703 5.28902C12.9236 5.28902 12.2902 5.15092 11.7387 4.88976C11.5174 4.78513 11.2699 4.79669 11.0628 4.91936C10.851 5.042 10.7198 5.25259 10.703 5.49661C10.6961 5.5978 10.6927 5.69087 10.6927 5.78136C10.6928 6.87534 11.1401 7.89297 11.8674 8.52685ZM10.7267 15.8554V20.4334C10.7267 21.4476 8.81832 21.9785 6.93268 21.9785C5.04704 21.9785 3.13781 21.4476 3.13781 20.4334V15.8554C3.13781 14.8408 5.04704 14.3103 6.93268 14.3103C8.81832 14.3103 10.7267 14.8408 10.7267 15.8554ZM10.1263 19.0195C9.41439 19.4625 8.16859 19.6906 6.93264 19.6906C5.69626 19.6906 4.45003 19.4621 3.73813 19.019V19.2884V20.1628C4.45003 20.6062 5.69626 20.8344 6.93264 20.8344C8.16859 20.8344 9.41439 20.6062 10.1263 20.1632V19.2884V19.0195ZM10.1263 16.7303C9.41439 17.1733 8.16859 17.4014 6.93264 17.4014C5.69626 17.4014 4.45003 17.1732 3.73813 16.7298V17.0005V17.8744C4.45003 18.3174 5.69626 18.5456 6.93264 18.5456C8.16859 18.5456 9.41439 18.3174 10.1263 17.8749V17.0005V16.7303ZM5.35968 2.87891V2.34326C5.22158 2.3913 5.12297 2.49421 5.12297 2.61087C5.12293 2.72538 5.22244 2.82958 5.35968 2.87891ZM6.19762 3.80609C6.19762 3.692 6.09771 3.58823 5.96047 3.53934V4.07241C6.09771 4.02351 6.19762 3.9197 6.19762 3.80609ZM2.47266 3.20912C2.47266 1.4517 3.90244 0.0214844 5.66029 0.0214844C7.41685 0.0214844 8.84621 1.4517 8.84621 3.20912C8.84621 4.96568 7.41685 6.39504 5.66029 6.39504C3.90244 6.39504 2.47266 4.96568 2.47266 3.20912ZM4.52214 2.61087C4.52214 3.0543 4.88496 3.42311 5.35968 3.49602V4.1024H4.83349C4.66754 4.1024 4.53331 4.23706 4.53331 4.40258C4.53331 4.56852 4.66754 4.70319 4.83349 4.70319H5.35968V4.90132C5.35968 5.06683 5.49435 5.2015 5.66029 5.2015C5.82581 5.2015 5.96047 5.06683 5.96047 4.90132V4.68948C6.43519 4.61656 6.79802 4.24819 6.79802 3.80604C6.79802 3.36347 6.43523 2.99509 5.96047 2.92218V2.31413H6.49784C6.66336 2.31413 6.79802 2.17989 6.79802 2.01395C6.79802 1.84843 6.66336 1.71377 6.49784 1.71377H5.96047V1.51564C5.96047 1.34969 5.82581 1.21546 5.66029 1.21546C5.49435 1.21546 5.35968 1.34969 5.35968 1.51564V1.72704C4.88492 1.79949 4.52214 2.16829 4.52214 2.61087Z" fill="url(#paint0_linear_624_7342)"/>
<defs>
<linearGradient id="paint0_linear_624_7342" x1="11.0004" y1="0.0214844" x2="11.0004" y2="21.9785" gradientUnits="userSpaceOnUse">
<stop stop-color="#17A6D7"/>
<stop offset="0.0617" stop-color="#259ADB"/>
<stop offset="0.1856" stop-color="#3B87E2"/>
<stop offset="0.2649" stop-color="#4380E4"/>
<stop offset="1" stop-color="#9735FD"/>
</linearGradient>
</defs>
</svg>
