<svg width="22" height="22" viewBox="0 0 22 22" fill="none" xmlns="http://www.w3.org/2000/svg">
<path fill-rule="evenodd" clip-rule="evenodd" d="M18.5513 9.63848V10.543C18.5513 11.6671 17.6401 12.5783 16.516 12.5783C15.3919 12.5783 14.4807 11.6671 14.4807 10.543V9.63848L15.896 10.2675C16.2907 10.4429 16.7413 10.4429 17.136 10.2675L18.5513 9.63848ZM13.2086 9.07311V11.3063C13.2086 11.5171 13.0378 11.688 12.8269 11.688C12.6162 11.688 12.4453 11.5171 12.4453 11.3063V8.7334C12.45 8.73579 12.4548 8.73807 12.4596 8.74024L13.2086 9.07311Z" fill="url(#paint0_linear_624_7329)"/>
<path d="M20.5724 8.65093L17.136 7.12363C16.7413 6.94821 16.2908 6.94821 15.896 7.12363L12.4596 8.65093C12.2582 8.74046 12.2582 9.02637 12.4596 9.11591L15.896 10.6432C16.2908 10.8186 16.7413 10.8186 17.136 10.6432L20.5724 9.11591C20.7739 9.02637 20.7739 8.74046 20.5724 8.65093Z" fill="url(#paint1_linear_624_7329)"/>
<path fill-rule="evenodd" clip-rule="evenodd" d="M14.9572 17.0245H19.5692C20.1313 17.0245 20.5869 16.569 20.5869 16.0069C20.5869 14.9042 19.5912 13.9558 18.1639 13.5361C17.9935 13.486 17.8112 13.5398 17.6864 13.6661L16.8781 14.4834C16.6789 14.6847 16.3536 14.6847 16.1544 14.4834L15.3462 13.6661C15.2213 13.5398 15.039 13.486 14.8686 13.5361C14.3686 13.6831 13.9216 13.895 13.5518 14.1557C14.4329 14.962 14.9536 15.953 14.9572 17.0245Z" fill="url(#paint2_linear_624_7329)"/>
<path fill-rule="evenodd" clip-rule="evenodd" d="M10.8002 7.52325V8.90322C10.8002 10.618 9.41005 12.0081 7.69525 12.0081C5.98043 12.0081 4.5903 10.618 4.5903 8.90322V7.52325L6.74947 8.48289C7.3516 8.7505 8.0389 8.7505 8.64103 8.48289L10.8002 7.52325ZM2.6497 6.66076V10.0676C2.6497 10.3891 2.38906 10.6497 2.06753 10.6497C1.746 10.6497 1.48535 10.3891 1.48535 10.0676V6.14252C1.49242 6.14617 1.49968 6.14964 1.50711 6.15295L2.6497 6.66076Z" fill="url(#paint3_linear_624_7329)"/>
<path d="M13.8831 5.44355L8.64078 3.11361C8.03865 2.846 7.35134 2.846 6.74921 3.11361L1.50686 5.44355C1.19954 5.58013 1.19954 6.0163 1.50686 6.15288L6.74921 8.48282C7.35134 8.75043 8.03865 8.75043 8.64078 8.48282L13.8831 6.15288C14.1905 6.0163 14.1905 5.58013 13.8831 5.44355Z" fill="url(#paint4_linear_624_7329)"/>
<path d="M5.91026 13.0947L7.14333 14.3415C7.44716 14.6487 7.94336 14.6487 8.24718 14.3415L9.48028 13.0947C9.67076 12.9021 9.94879 12.8199 10.2088 12.8964C12.3862 13.5367 13.9051 14.9835 13.9051 16.6656C13.9051 17.5231 13.2101 18.2181 12.3527 18.2181H3.03783C2.18042 18.2181 1.48535 17.5231 1.48535 16.6656C1.48535 14.9835 3.00434 13.5367 5.18179 12.8964C5.44169 12.8199 5.71977 12.9021 5.91026 13.0947Z" fill="url(#paint5_linear_624_7329)"/>
<defs>
<linearGradient id="paint0_linear_624_7329" x1="15.4985" y1="8.73309" x2="15.4985" y2="12.5785" gradientUnits="userSpaceOnUse">
<stop stop-color="#FD6700"/>
<stop offset="1" stop-color="#FFCE00"/>
</linearGradient>
<linearGradient id="paint1_linear_624_7329" x1="16.5165" y1="6.99236" x2="16.5165" y2="10.7745" gradientUnits="userSpaceOnUse">
<stop stop-color="#FD6700"/>
<stop offset="1" stop-color="#FFCE00"/>
</linearGradient>
<linearGradient id="paint2_linear_624_7329" x1="17.0696" y1="13.5172" x2="17.0696" y2="17.0244" gradientUnits="userSpaceOnUse">
<stop stop-color="#FD6700"/>
<stop offset="1" stop-color="#FFCE00"/>
</linearGradient>
<linearGradient id="paint3_linear_624_7329" x1="6.14241" y1="6.14258" x2="6.14241" y2="12.0083" gradientUnits="userSpaceOnUse">
<stop stop-color="#FD6700"/>
<stop offset="1" stop-color="#FFCE00"/>
</linearGradient>
<linearGradient id="paint4_linear_624_7329" x1="7.69468" y1="2.91315" x2="7.69468" y2="8.68356" gradientUnits="userSpaceOnUse">
<stop stop-color="#FD6700"/>
<stop offset="1" stop-color="#FFCE00"/>
</linearGradient>
<linearGradient id="paint5_linear_624_7329" x1="7.69571" y1="12.8682" x2="7.69571" y2="18.2178" gradientUnits="userSpaceOnUse">
<stop stop-color="#FD6700"/>
<stop offset="1" stop-color="#FFCE00"/>
</linearGradient>
</defs>
</svg>
