<svg width="16" height="17" viewBox="0 0 16 17" fill="none" xmlns="http://www.w3.org/2000/svg">
<path d="M6.81762 12.1025L12.4201 6.5L11.542 5.62187L6.81762 10.3463L4.44262 7.97125L3.56449 8.84937L6.81762 12.1025ZM2.42345 16.0833C2.00789 16.0833 1.6529 15.9362 1.35845 15.6419C1.06415 15.3474 0.916992 14.9924 0.916992 14.5769V3.42313C0.916992 3.00757 1.06415 2.65257 1.35845 2.35812C1.6529 2.06382 2.00789 1.91667 2.42345 1.91667H6.13178C6.18415 1.45403 6.38609 1.06062 6.73762 0.736458C7.08901 0.412152 7.50991 0.25 8.00033 0.25C8.49602 0.25 8.91963 0.412152 9.27116 0.736458C9.62269 1.06062 9.82192 1.45403 9.86887 1.91667H13.5772C13.9928 1.91667 14.3478 2.06382 14.6422 2.35812C14.9365 2.65257 15.0837 3.00757 15.0837 3.42313V14.5769C15.0837 14.9924 14.9365 15.3474 14.6422 15.6419C14.3478 15.9362 13.9928 16.0833 13.5772 16.0833H2.42345ZM2.42345 14.8333H13.5772C13.6414 14.8333 13.7001 14.8066 13.7535 14.7531C13.8069 14.6998 13.8337 14.641 13.8337 14.5769V3.42313C13.8337 3.35896 13.8069 3.30021 13.7535 3.24687C13.7001 3.1934 13.6414 3.16667 13.5772 3.16667H2.42345C2.35928 3.16667 2.30053 3.1934 2.2472 3.24687C2.19373 3.30021 2.16699 3.35896 2.16699 3.42313V14.5769C2.16699 14.641 2.19373 14.6998 2.2472 14.7531C2.30053 14.8066 2.35928 14.8333 2.42345 14.8333ZM8.00033 2.62187C8.18088 2.62187 8.33019 2.56285 8.44824 2.44479C8.5663 2.32674 8.62533 2.17743 8.62533 1.99687C8.62533 1.81632 8.5663 1.66701 8.44824 1.54896C8.33019 1.4309 8.18088 1.37187 8.00033 1.37187C7.81977 1.37187 7.67046 1.4309 7.55241 1.54896C7.43435 1.66701 7.37533 1.81632 7.37533 1.99687C7.37533 2.17743 7.43435 2.32674 7.55241 2.44479C7.67046 2.56285 7.81977 2.62187 8.00033 2.62187Z" fill="#626262"/>
</svg>
