<svg width="14" height="16" viewBox="0 0 14 16" fill="none" xmlns="http://www.w3.org/2000/svg">
<path d="M2.25646 15.9168C1.83549 15.9168 1.47917 15.771 1.1875 15.4793C0.895833 15.1877 0.75 14.8313 0.75 14.4104V1.58995C0.75 1.16898 0.895833 0.812663 1.1875 0.520996C1.47917 0.229329 1.83549 0.0834961 2.25646 0.0834961H11.7435C12.1645 0.0834961 12.5208 0.229329 12.8125 0.520996C13.1042 0.812663 13.25 1.16898 13.25 1.58995V14.4104C13.25 14.8313 13.1042 15.1877 12.8125 15.4793C12.5208 15.771 12.1645 15.9168 11.7435 15.9168H2.25646ZM2.25646 14.6668H11.7435C11.8077 14.6668 11.8665 14.6401 11.9198 14.5866C11.9733 14.5333 12 14.4745 12 14.4104V1.58995C12 1.52579 11.9733 1.46704 11.9198 1.4137C11.8665 1.36023 11.8077 1.3335 11.7435 1.3335H10.3333V6.79829L8.45833 5.67641L6.58333 6.79829V1.3335H2.25646C2.19229 1.3335 2.13354 1.36023 2.08021 1.4137C2.02674 1.46704 2 1.52579 2 1.58995V14.4104C2 14.4745 2.02674 14.5333 2.08021 14.5866C2.13354 14.6401 2.19229 14.6668 2.25646 14.6668Z" fill="#626262"/>
</svg>
