<svg width="18" height="14" viewBox="0 0 18 14" fill="none" xmlns="http://www.w3.org/2000/svg">
<path d="M13.1183 8.92307C12.5991 8.92307 12.1568 8.74036 11.7914 8.37495C11.426 8.00953 11.2433 7.56724 11.2433 7.04807C11.2433 6.52877 11.426 6.08641 11.7914 5.72099C12.1568 5.35571 12.5991 5.17307 13.1183 5.17307C13.6376 5.17307 14.0799 5.35571 14.4451 5.72099C14.8106 6.08641 14.9933 6.52877 14.9933 7.04807C14.9933 7.56724 14.8106 8.00953 14.4451 8.37495C14.0799 8.74036 13.6376 8.92307 13.1183 8.92307ZM9.15994 13.0897V12.1314C9.15994 11.8354 9.23563 11.5637 9.38702 11.3162C9.53841 11.0687 9.75334 10.8906 10.0318 10.782C10.5165 10.579 11.0181 10.4267 11.5364 10.3252C12.0547 10.2238 12.582 10.1731 13.1183 10.1731C13.6438 10.1731 14.166 10.2238 14.6847 10.3252C15.2035 10.4267 15.7102 10.579 16.2049 10.782C16.4834 10.8906 16.6983 11.0687 16.8495 11.3162C17.0009 11.5637 17.0766 11.8354 17.0766 12.1314V13.0897H9.15994ZM7.17285 6.74349C6.37077 6.74349 5.6841 6.45793 5.11285 5.88682C4.54174 5.31557 4.25619 4.62891 4.25619 3.82682C4.25619 3.02474 4.54174 2.33814 5.11285 1.76703C5.6841 1.19578 6.37077 0.910156 7.17285 0.910156C7.97494 0.910156 8.66153 1.19578 9.23264 1.76703C9.80389 2.33814 10.0895 3.02474 10.0895 3.82682C10.0895 4.62891 9.80389 5.31557 9.23264 5.88682C8.66153 6.45793 7.97494 6.74349 7.17285 6.74349ZM0.922852 13.0897V11.237C0.922852 10.8208 1.03153 10.4381 1.24889 10.0891C1.46639 9.74009 1.76473 9.47745 2.14389 9.3012C2.92917 8.90592 3.74424 8.60516 4.5891 8.39891C5.43396 8.19279 6.29521 8.08974 7.17285 8.08974C7.5841 8.08974 7.99542 8.11939 8.40681 8.1787C8.81806 8.238 9.22938 8.30981 9.64077 8.39411C9.46341 8.57411 9.28605 8.75418 9.10869 8.93432L8.5766 9.47432C8.34271 9.41821 8.10875 9.38175 7.87473 9.36495C7.6407 9.34814 7.40674 9.33974 7.17285 9.33974C6.39396 9.33974 5.62848 9.42891 4.87639 9.60724C4.12417 9.78571 3.40459 10.0555 2.71764 10.4166C2.55737 10.502 2.42646 10.6139 2.32494 10.7522C2.22355 10.8907 2.17285 11.0523 2.17285 11.237V11.8397H7.17285V13.0897H0.922852ZM7.17285 5.49349C7.63119 5.49349 8.02355 5.3303 8.34994 5.00391C8.67632 4.67752 8.83952 4.28516 8.83952 3.82682C8.83952 3.36849 8.67632 2.97613 8.34994 2.64974C8.02355 2.32335 7.63119 2.16016 7.17285 2.16016C6.71452 2.16016 6.32216 2.32335 5.99577 2.64974C5.66938 2.97613 5.50619 3.36849 5.50619 3.82682C5.50619 4.28516 5.66938 4.67752 5.99577 5.00391C6.32216 5.3303 6.71452 5.49349 7.17285 5.49349Z" fill="#626262"/>
</svg>
