<svg width="15" height="16" viewBox="0 0 15 16" fill="none" xmlns="http://www.w3.org/2000/svg">
<path d="M1.50646 15.9168C1.08549 15.9168 0.729167 15.771 0.4375 15.4793C0.145833 15.1877 0 14.8313 0 14.4104V3.25662C0 2.83565 0.145833 2.47933 0.4375 2.18766C0.729167 1.896 1.08549 1.75016 1.50646 1.75016H5.21479C5.28104 1.28225 5.48778 0.887523 5.835 0.565996C6.18222 0.244329 6.59833 0.0834961 7.08333 0.0834961C7.56833 0.0834961 7.98445 0.244329 8.33167 0.565996C8.67889 0.887523 8.88563 1.28225 8.95188 1.75016H12.6602C13.0812 1.75016 13.4375 1.896 13.7292 2.18766C14.0208 2.47933 14.1667 2.83565 14.1667 3.25662V14.4104C14.1667 14.8313 14.0208 15.1877 13.7292 15.4793C13.4375 15.771 13.0812 15.9168 12.6602 15.9168H1.50646ZM7.08333 2.45537C7.26389 2.45537 7.4132 2.39634 7.53125 2.27829C7.64931 2.16023 7.70833 2.01093 7.70833 1.83037C7.70833 1.64981 7.64931 1.50051 7.53125 1.38245C7.4132 1.2644 7.26389 1.20537 7.08333 1.20537C6.90278 1.20537 6.75347 1.2644 6.63542 1.38245C6.51736 1.50051 6.45833 1.64981 6.45833 1.83037C6.45833 2.01093 6.51736 2.16023 6.63542 2.27829C6.75347 2.39634 6.90278 2.45537 7.08333 2.45537ZM1.25 13.8687C2 13.1326 2.87153 12.5527 3.86458 12.1291C4.85764 11.7055 5.93056 11.4937 7.08333 11.4937C8.23611 11.4937 9.30903 11.7055 10.3021 12.1291C11.2951 12.5527 12.1667 13.1326 12.9167 13.8687V3.25662C12.9167 3.19245 12.8899 3.1337 12.8365 3.08037C12.7831 3.0269 12.7244 3.00016 12.6602 3.00016H1.50646C1.44229 3.00016 1.38354 3.0269 1.33021 3.08037C1.27674 3.1337 1.25 3.19245 1.25 3.25662V13.8687ZM7.08333 9.69891C7.83542 9.69891 8.47486 9.43558 9.00167 8.90891C9.52833 8.38211 9.79167 7.74266 9.79167 6.99058C9.79167 6.2385 9.52833 5.59905 9.00167 5.07225C8.47486 4.54558 7.83542 4.28225 7.08333 4.28225C6.33125 4.28225 5.69181 4.54558 5.165 5.07225C4.63833 5.59905 4.375 6.2385 4.375 6.99058C4.375 7.74266 4.63833 8.38211 5.165 8.90891C5.69181 9.43558 6.33125 9.69891 7.08333 9.69891ZM2.45188 14.6668H11.7148V14.4906C11.0566 13.9029 10.3347 13.4649 9.54896 13.1764C8.76313 12.8879 7.94125 12.7437 7.08333 12.7437C6.23611 12.7437 5.41826 12.8866 4.62979 13.1725C3.84132 13.4583 3.11535 13.8923 2.45188 14.4745V14.6668ZM7.08333 8.44891C6.68264 8.44891 6.33944 8.306 6.05375 8.02016C5.76792 7.73447 5.625 7.39127 5.625 6.99058C5.625 6.58988 5.76792 6.24669 6.05375 5.961C6.33944 5.67516 6.68264 5.53225 7.08333 5.53225C7.48403 5.53225 7.82722 5.67516 8.11292 5.961C8.39875 6.24669 8.54167 6.58988 8.54167 6.99058C8.54167 7.39127 8.39875 7.73447 8.11292 8.02016C7.82722 8.306 7.48403 8.44891 7.08333 8.44891Z" fill="#626262"/>
</svg>
