<svg width="16" height="16" viewBox="0 0 16 16" fill="none" xmlns="http://www.w3.org/2000/svg">
<path d="M6.0768 15.9168L5.75951 13.3783C5.53631 13.3036 5.30742 13.1989 5.07284 13.0643C4.83839 12.9296 4.62874 12.7854 4.44388 12.6316L2.09284 13.6252L0.169922 10.2918L2.20346 8.75495C2.1843 8.63107 2.17069 8.50662 2.16263 8.38162C2.15457 8.25662 2.15055 8.13211 2.15055 8.00808C2.15055 7.88961 2.15457 7.76919 2.16263 7.64683C2.17069 7.52447 2.1843 7.39065 2.20346 7.24537L0.169922 5.7085L2.09284 2.3912L4.43576 3.37683C4.63673 3.21766 4.85124 3.07211 5.0793 2.94016C5.30735 2.80822 5.53145 2.70218 5.75159 2.62204L6.0768 0.0834961H9.92305L10.2403 2.62995C10.4903 2.72079 10.7165 2.82683 10.9189 2.94808C11.1214 3.06933 11.3258 3.21225 11.532 3.37683L13.907 2.3912L15.8299 5.7085L13.7643 7.26933C13.7942 7.40391 13.8105 7.52975 13.8133 7.64683C13.8159 7.76377 13.8172 7.88155 13.8172 8.00016C13.8172 8.11336 13.8145 8.2285 13.8091 8.34558C13.8038 8.46252 13.7846 8.59634 13.7516 8.74704L15.8012 10.2918L13.878 13.6252L11.532 12.6235C11.3258 12.7881 11.1153 12.9336 10.9005 13.0602C10.6858 13.1868 10.4658 13.2902 10.2403 13.3704L9.92305 15.9168H6.0768ZM7.16659 14.6668H8.80451L9.10409 12.4345C9.52937 12.3234 9.91798 12.1656 10.2699 11.961C10.622 11.7563 10.9615 11.4931 11.2885 11.1716L13.3589 12.0418L14.1795 10.6252L12.3718 9.26308C12.4412 9.04725 12.4885 8.83565 12.5135 8.62829C12.5386 8.42107 12.5512 8.21169 12.5512 8.00016C12.5512 7.78322 12.5386 7.57384 12.5135 7.37204C12.4885 7.17009 12.4412 6.96384 12.3718 6.75329L14.1953 5.37516L13.3749 3.9585L11.2803 4.84141C11.0015 4.54336 10.6674 4.28002 10.278 4.05141C9.8886 3.8228 9.49465 3.66093 9.09617 3.56579L8.83326 1.3335H7.17951L6.90367 3.55787C6.47853 3.65829 6.08596 3.81211 5.72596 4.01933C5.36583 4.22669 5.02228 4.49377 4.69534 4.82058L2.62492 3.9585L1.80451 5.37516L3.60409 6.71641C3.53464 6.91419 3.48603 7.11988 3.45826 7.3335C3.43048 7.54711 3.41659 7.77197 3.41659 8.00808C3.41659 8.22502 3.43048 8.43766 3.45826 8.646C3.48603 8.85433 3.53201 9.06002 3.59617 9.26308L1.80451 10.6252L2.62492 12.0418L4.68742 11.1668C5.00367 11.4916 5.3418 11.7576 5.7018 11.965C6.06194 12.1722 6.45992 12.3313 6.89576 12.4425L7.16659 14.6668ZM8.00951 10.5002C8.70284 10.5002 9.29284 10.2568 9.77951 9.77016C10.2662 9.2835 10.5095 8.6935 10.5095 8.00016C10.5095 7.30683 10.2662 6.71683 9.77951 6.23016C9.29284 5.7435 8.70284 5.50016 8.00951 5.50016C7.30756 5.50016 6.71541 5.7435 6.23305 6.23016C5.75069 6.71683 5.50951 7.30683 5.50951 8.00016C5.50951 8.6935 5.75069 9.2835 6.23305 9.77016C6.71541 10.2568 7.30756 10.5002 8.00951 10.5002Z" fill="#626262"/>
</svg>
