<svg width="18" height="14" viewBox="0 0 18 14" fill="none" xmlns="http://www.w3.org/2000/svg">
<path d="M0.499023 13.0898V11.2371C0.499023 10.8076 0.609857 10.4244 0.831523 10.0873C1.05319 9.75022 1.34923 9.48799 1.71965 9.30063C2.51159 8.91327 3.30791 8.61459 4.10861 8.40459C4.90944 8.19473 5.78951 8.0898 6.74882 8.0898C7.70826 8.0898 8.58833 8.19473 9.38902 8.40459C10.1899 8.61459 10.9862 8.91327 11.7782 9.30063C12.1486 9.48799 12.4446 9.75022 12.6663 10.0873C12.888 10.4244 12.9988 10.8076 12.9988 11.2371V13.0898H0.499023ZM14.6655 13.0898V11.1346C14.6655 10.5876 14.5316 10.0663 14.2638 9.57063C13.9959 9.07508 13.6159 8.64987 13.1238 8.29501C13.6826 8.37834 14.2131 8.5073 14.7153 8.68188C15.2174 8.85661 15.6965 9.06306 16.1528 9.30126C16.5833 9.53098 16.9158 9.80175 17.1503 10.1136C17.3847 10.4252 17.5019 10.7656 17.5019 11.1346V13.0898H14.6655ZM6.74882 6.74355C5.94673 6.74355 5.26013 6.45799 4.68902 5.88688C4.11791 5.31563 3.83236 4.62897 3.83236 3.82688C3.83236 3.0248 4.11791 2.3382 4.68902 1.76709C5.26013 1.19584 5.94673 0.910217 6.74882 0.910217C7.5509 0.910217 8.23757 1.19584 8.80882 1.76709C9.37993 2.3382 9.66548 3.0248 9.66548 3.82688C9.66548 4.62897 9.37993 5.31563 8.80882 5.88688C8.23757 6.45799 7.5509 6.74355 6.74882 6.74355ZM13.9442 3.82688C13.9442 4.62897 13.6587 5.31563 13.0876 5.88688C12.5165 6.45799 11.8299 6.74355 11.0278 6.74355C10.9337 6.74355 10.8141 6.73286 10.6688 6.71147C10.5234 6.69008 10.4037 6.66661 10.3099 6.64105C10.6385 6.24591 10.891 5.80758 11.0676 5.32605C11.244 4.84452 11.3321 4.34452 11.3321 3.82605C11.3321 3.30744 11.2421 2.80931 11.0621 2.33168C10.8821 1.85418 10.6314 1.41459 10.3099 1.01293C10.4294 0.970148 10.5491 0.94237 10.6688 0.929592C10.7884 0.916675 10.9081 0.910217 11.0278 0.910217C11.8299 0.910217 12.5165 1.19584 13.0876 1.76709C13.6587 2.3382 13.9442 3.0248 13.9442 3.82688ZM1.74882 11.8398H11.7488V11.2371C11.7488 11.0631 11.7053 10.9082 11.6182 10.7725C11.5312 10.6368 11.3932 10.5182 11.204 10.4167C10.5182 10.0631 9.81201 9.79515 9.08548 9.61293C8.35895 9.43084 7.58007 9.3398 6.74882 9.3398C5.9177 9.3398 5.13888 9.43084 4.41236 9.61293C3.68583 9.79515 2.97965 10.0631 2.29382 10.4167C2.10465 10.5182 1.96652 10.6368 1.87944 10.7725C1.79236 10.9082 1.74882 11.0631 1.74882 11.2371V11.8398ZM6.74882 5.49355C7.20715 5.49355 7.59951 5.33036 7.9259 5.00397C8.25229 4.67758 8.41548 4.28522 8.41548 3.82688C8.41548 3.36855 8.25229 2.97619 7.9259 2.6498C7.59951 2.32341 7.20715 2.16022 6.74882 2.16022C6.29048 2.16022 5.89812 2.32341 5.57173 2.6498C5.24534 2.97619 5.08215 3.36855 5.08215 3.82688C5.08215 4.28522 5.24534 4.67758 5.57173 5.00397C5.89812 5.33036 6.29048 5.49355 6.74882 5.49355Z" fill="#626262"/>
</svg>
